<svg width="300" height="280" viewBox="0 0 300 280" fill="none" xmlns="http://www.w3.org/2000/svg">
<path d="M145.751 168.777L124.241 198.707L145.741 168.767L145.751 168.777Z" fill="black"/>
<path d="M145.661 168.647L125.661 196.347C119.911 204.637 116.921 210.397 116.761 218.347L60.6713 140.267L60.9913 140.387L61.3813 140.527C62.1413 140.817 62.9313 141.087 63.7513 141.357L64.5313 141.607L66.2113 142.117C70.4489 143.298 74.7719 144.147 79.1413 144.657L81.1413 144.887H81.2613C82.0313 144.967 82.8113 145.037 83.6113 145.097L84.8113 145.187C85.8113 145.267 86.8713 145.327 87.9413 145.367L89.8513 145.437C91.1513 145.437 92.4913 145.497 93.8513 145.497H96.1813C97.1813 145.497 98.1813 145.497 99.1813 145.417H100.431L101.881 145.347L103.361 145.267H103.981C106.361 145.117 108.831 144.917 111.391 144.647L113.221 144.447C116.288 144.107 119.491 143.677 122.831 143.157L124.061 142.967L124.661 142.867C125.261 142.78 125.861 142.68 126.461 142.567L126.821 142.507L145.661 168.647Z" fill="black"/>
<path d="M149.801 244.237H149.141C148.821 244.237 148.501 244.187 148.191 244.147C147.571 244.077 146.961 243.987 146.351 243.877H146.281C145.681 243.757 145.081 243.627 144.491 243.467C142.956 243.066 141.463 242.521 140.031 241.837C139.461 241.577 138.901 241.287 138.351 240.977C137.519 240.514 136.714 240.004 135.941 239.447C130.308 235.382 126.514 229.251 125.389 222.396C124.265 215.54 125.901 208.519 129.941 202.867L154.381 168.867L154.291 168.747L131.421 200.477C126.251 207.927 123.781 212.637 123.781 219.137C123.768 224.599 125.479 229.925 128.671 234.357C131.126 237.743 134.357 240.493 138.092 242.375C141.827 244.258 145.959 245.218 150.141 245.177V244.257L149.801 244.237Z" fill="black"/>
<path d="M184.751 126.457C182.072 137.028 180.728 147.892 180.751 158.797C180.754 164.143 181.055 169.485 181.651 174.797C184.831 203.267 180.651 219.677 175.651 228.987C174.09 231.98 172.065 234.707 169.651 237.067L167.241 238.797L165.821 239.797H165.771L165.191 240.217C161.283 243.032 156.673 244.714 151.87 245.078C147.067 245.442 142.256 244.474 137.968 242.28C133.68 240.087 130.08 236.752 127.564 232.644C125.049 228.536 123.716 223.814 123.711 218.997C123.711 212.497 126.181 207.787 131.351 200.337L154.221 168.607L184.731 126.267C184.731 126.267 184.761 126.457 184.751 126.457Z" fill="black"/>
<path d="M253.231 120.997L188.421 211.227C189.332 205.271 189.774 199.252 189.741 193.227C189.719 186.814 189.338 180.408 188.601 174.037C186.456 156.216 188.161 138.142 193.601 121.037C195.809 113.889 199.021 107.091 203.141 100.847L203.221 100.727L204.451 99.0171L210.631 90.4171C213.072 87.0397 216.281 84.291 219.993 82.3976C223.705 80.5042 227.814 79.5203 231.981 79.5271C236.791 79.5452 241.504 80.8862 245.603 83.4034C249.702 85.9205 253.03 89.5168 255.222 93.7986C257.414 98.0804 258.386 102.883 258.031 107.68C257.676 112.477 256.009 117.084 253.211 120.997H253.231Z" fill="black"/>
<path d="M172.511 233.387C171.045 235.429 169.29 237.248 167.301 238.787L169.711 237.057C172.125 234.697 174.15 231.97 175.711 228.977L172.511 233.387ZM145.741 168.767L124.241 198.707L145.751 168.777L145.741 168.767ZM154.371 168.767L184.751 126.457C184.751 126.407 184.751 126.347 184.751 126.297L154.281 168.657L131.411 200.387C126.241 207.837 123.771 212.547 123.771 219.047C123.758 224.509 125.469 229.835 128.661 234.267C132.723 239.908 138.856 243.707 145.716 244.832C152.575 245.957 159.601 244.315 165.251 240.267L165.831 239.847C161.215 242.924 155.745 244.467 150.201 244.257H150.141H149.841H149.181C148.861 244.257 148.541 244.207 148.231 244.167C147.611 244.097 147.001 244.007 146.391 243.897H146.321C145.721 243.777 145.121 243.647 144.531 243.487C142.996 243.086 141.503 242.541 140.071 241.857C139.501 241.587 138.941 241.297 138.391 240.997C137.562 240.525 136.758 240.011 135.981 239.457C130.348 235.392 126.554 229.261 125.429 222.406C124.305 215.55 125.941 208.529 129.981 202.877L154.371 168.767ZM135.931 239.367C136.704 239.924 137.509 240.434 138.341 240.897C137.513 240.432 136.708 239.924 135.931 239.377V239.367Z" fill="black"/>
<path d="M122.251 136.067C120.891 136.277 119.561 136.477 118.251 136.657L117.741 136.727C117.011 136.837 116.281 136.927 115.561 137.017L113.421 137.277C110.588 137.61 107.878 137.87 105.291 138.057L101.931 138.267L99.7313 138.367L97.6013 138.437L96.1413 138.457H94.9013C93.9013 138.457 92.9913 138.457 92.0713 138.457H91.1413C89.6813 138.457 88.2713 138.367 86.9113 138.287C86.6013 138.287 86.3013 138.287 86.0013 138.227L84.3913 138.117L82.2013 137.917H81.9513C81.1613 137.837 80.3813 137.747 79.6313 137.647L78.0813 137.437L76.1813 137.147C74.5013 136.857 72.9213 136.537 71.4313 136.147L69.9713 135.787C69.4913 135.667 69.0213 135.537 68.5713 135.407L68.3813 135.357L67.2213 135.017L65.9313 134.607L64.7113 134.197L63.9213 133.917L63.1413 133.617L62.4913 133.357C62.1513 133.227 61.8213 133.087 61.4913 132.947L60.6513 132.577L60.0713 132.307C58.4507 131.549 56.8808 130.687 55.3713 129.727L54.5613 129.187C53.7244 128.618 52.9167 128.007 52.1413 127.357L51.6613 126.937C51.0713 126.427 50.5513 125.937 50.1113 125.467L46.9113 121.017C42.8631 115.366 41.2213 108.341 42.3461 101.482C43.4709 94.6221 47.2704 88.4888 52.9113 84.4271C57.3446 81.2292 62.6751 79.5143 68.1413 79.5271C72.3068 79.5296 76.412 80.5219 80.1187 82.4223C83.8255 84.3226 87.0276 87.0765 89.4613 90.457L122.251 136.067Z" fill="black"/>
<path d="M145.751 168.777L124.241 198.707L145.741 168.767L145.751 168.777ZM60.0613 132.307C58.4407 131.549 56.8708 130.687 55.3613 129.727L54.5513 129.187C53.7178 128.618 52.9134 128.007 52.1413 127.357L51.6613 126.937C51.0713 126.427 50.5513 125.937 50.1113 125.467L46.9113 121.017C42.8631 115.366 41.2213 108.341 42.3461 101.482C43.4709 94.6221 47.2704 88.4888 52.9113 84.4271C57.3446 81.2292 62.6751 79.5143 68.1413 79.5271C72.3068 79.5296 76.412 80.5219 80.1187 82.4223C83.8255 84.3226 87.0276 87.0765 89.4613 90.457L122.251 136.107C120.891 136.317 119.561 136.517 118.251 136.697L117.741 136.767C117.011 136.877 116.281 136.967 115.561 137.057L113.421 137.317C110.588 137.65 107.878 137.91 105.291 138.097L101.931 138.307C101.191 138.307 100.451 138.387 99.7313 138.407L97.6013 138.477L96.1413 138.457H94.9013C93.9013 138.457 92.9913 138.457 92.0713 138.457H91.1413C89.6813 138.457 88.2713 138.367 86.9113 138.287C86.6013 138.287 86.3013 138.287 86.0013 138.227L84.3913 138.117L82.2013 137.917H81.9513C81.1613 137.837 80.3813 137.747 79.6313 137.647L78.0813 137.437L76.1813 137.147C74.5013 136.857 72.9213 136.537 71.4313 136.147C70.9313 136.037 70.4313 135.917 69.9713 135.787C69.5113 135.657 69.0213 135.547 68.5713 135.407L68.3813 135.357L67.2213 135.017L65.9313 134.607C65.5113 134.477 65.1113 134.337 64.7113 134.197L63.9213 133.917L63.1413 133.617L62.4913 133.357C62.1513 133.227 61.8213 133.087 61.4913 132.947L60.6513 132.577L60.0613 132.307ZM116.791 218.307L60.7013 140.227L61.0213 140.347L61.4113 140.487C62.1713 140.777 62.9613 141.047 63.7813 141.317L64.5613 141.567L66.2413 142.077C70.468 143.27 74.7809 144.133 79.1413 144.657L81.1413 144.887H81.2613C82.0313 144.967 82.8113 145.037 83.6113 145.097L84.8113 145.187C85.8113 145.267 86.8713 145.327 87.9413 145.367L89.8513 145.437C91.1513 145.437 92.4913 145.497 93.8513 145.497H96.1813C97.1813 145.497 98.1813 145.497 99.1813 145.417H100.431L101.881 145.347L103.361 145.267H103.981C106.361 145.117 108.831 144.917 111.391 144.647L113.221 144.447C116.288 144.107 119.491 143.677 122.831 143.157L124.061 142.967L124.661 142.867C125.261 142.78 125.861 142.68 126.461 142.567L126.821 142.507L145.671 168.747L125.671 196.447C119.941 204.637 116.951 210.397 116.791 218.327V218.307ZM184.791 126.457C182.112 137.028 180.768 147.892 180.791 158.797C180.794 164.143 181.095 169.485 181.691 174.797C184.871 203.267 180.691 219.677 175.691 228.987C174.13 231.98 172.105 234.707 169.691 237.067L167.281 238.797C166.827 239.157 166.353 239.491 165.861 239.797H165.811L165.231 240.217C161.323 243.032 156.713 244.714 151.91 245.078C147.107 245.442 142.296 244.474 138.008 242.28C133.72 240.087 130.12 236.752 127.604 232.644C125.089 228.536 123.756 223.814 123.751 218.997C123.751 212.497 126.221 207.787 131.391 200.337L154.261 168.607L184.771 126.267C184.771 126.267 184.761 126.457 184.751 126.457H184.791ZM253.271 120.977L188.461 211.207C189.372 205.251 189.814 199.232 189.781 193.207C189.759 186.794 189.378 180.388 188.641 174.017C186.496 156.196 188.201 138.122 193.641 121.017C195.839 113.878 199.037 107.087 203.141 100.847L203.221 100.727L204.451 99.017L210.631 90.4171C213.072 87.0397 216.281 84.291 219.993 82.3976C223.705 80.5042 227.814 79.5203 231.981 79.5271C236.792 79.5452 241.504 80.8862 245.603 83.4034C249.702 85.9205 253.03 89.5168 255.222 93.7986C257.414 98.0804 258.386 102.883 258.031 107.68C257.676 112.477 256.009 117.084 253.211 120.997L253.271 120.977Z" fill="black"/>
<path d="M167.172 86.3359C176.623 76.8852 176.623 61.5627 167.172 52.112C157.721 42.6613 142.399 42.6613 132.948 52.112C123.497 61.5627 123.497 76.8853 132.948 86.3359C142.399 95.7866 157.721 95.7866 167.172 86.3359Z" fill="black"/>
<path d="M150.061 93.4571C145.275 93.4571 140.596 92.0378 136.616 89.3786C132.637 86.7195 129.535 82.94 127.703 78.518C125.872 74.096 125.393 69.2302 126.326 64.5359C127.26 59.8415 129.565 55.5295 132.949 52.1451C136.334 48.7606 140.646 46.4558 145.34 45.5221C150.034 44.5883 154.9 45.0675 159.322 46.8992C163.744 48.7308 167.524 51.8326 170.183 55.8123C172.842 59.7919 174.261 64.4708 174.261 69.2571C174.253 75.6729 171.701 81.8236 167.165 86.3603C162.628 90.8969 156.477 93.4491 150.061 93.4571Z" fill="black"/>
<path d="M184.751 126.457C182.072 137.028 180.728 147.892 180.751 158.797C180.754 164.143 181.055 169.485 181.651 174.797C184.831 203.267 180.651 219.677 175.651 228.987C174.09 231.98 172.065 234.707 169.651 237.067L167.241 238.797L165.821 239.797H165.771L165.191 240.217C161.283 243.032 156.673 244.714 151.87 245.078C147.067 245.442 142.256 244.474 137.968 242.28C133.68 240.087 130.08 236.752 127.564 232.644C125.049 228.536 123.716 223.814 123.711 218.997C123.711 212.497 126.181 207.787 131.351 200.337L154.221 168.607L184.731 126.267C184.731 126.267 184.761 126.457 184.751 126.457Z" fill="black"/>
<path d="M145.741 168.767L124.241 198.707L145.751 168.777L145.741 168.767Z" fill="black"/>
</svg>
