<svg id="Capa_1" data-name="Capa 1" xmlns="http://www.w3.org/2000/svg" viewBox="0 0 566.93 566.93"><polygon points="281.61 263.32 260.1 293.25 281.6 263.31 281.61 263.32"/><path d="M281.52,263.19l-20,27.7c-5.75,8.29-8.74,14.05-8.9,22l-56.09-78.08.32.12.39.14c.76.29,1.55.56,2.37.83l.78.25,1.68.51A84.76,84.76,0,0,0,215,239.2l2,.23h.12c.77.08,1.55.15,2.35.21l1.2.09c1,.08,2.06.14,3.13.18l1.91.07c1.3,0,2.64.06,4,.06h2.33c1,0,2,0,3-.08l1.25,0,1.45-.07,1.48-.08.62,0c2.38-.15,4.85-.35,7.41-.62l1.83-.2q4.6-.51,9.61-1.29l1.23-.19.6-.1q.9-.13,1.8-.3l.36-.06Z"/><path d="M285.66,338.78l-.66,0c-.32,0-.64-.05-.95-.09-.62-.07-1.23-.16-1.84-.27h-.07c-.6-.12-1.2-.25-1.79-.41a25,25,0,0,1-4.46-1.63c-.57-.26-1.13-.55-1.68-.86,0,0,0,0,0,0a24.44,24.44,0,0,1-2.41-1.53h0a26.27,26.27,0,0,1-6-36.58l24.44-34-.09-.12-22.87,31.73c-5.17,7.45-7.64,12.16-7.64,18.66a25.93,25.93,0,0,0,4.89,15.22A26.2,26.2,0,0,0,286,339.72v-.92H286Z"/><path d="M320.61,221a130.47,130.47,0,0,0-4,32.34,144.09,144.09,0,0,0,.9,16c3.18,28.47-1,44.88-6,54.19a32,32,0,0,1-6,8.08l-2.41,1.73-1.42,1-.05,0-.58.42a26.18,26.18,0,0,1-41.48-21.22c0-6.5,2.47-11.21,7.64-18.66l22.87-31.73,30.51-42.34S320.62,221,320.61,221Z"/><path d="M389.09,215.54l-64.81,90.23a115,115,0,0,0,1.32-18,172.38,172.38,0,0,0-1.14-19.19,125.41,125.41,0,0,1,5-53A79,79,0,0,1,339,195.39l.08-.12,1.23-1.71,6.18-8.6a26.29,26.29,0,0,1,21.35-10.89,26.22,26.22,0,0,1,21.23,41.47Z"/><path d="M308.37,327.93a26,26,0,0,1-5.21,5.4l2.41-1.73a32,32,0,0,0,6-8.08ZM281.6,263.31l-21.5,29.94,21.51-29.93Zm8.63,0L320.61,221c0-.05,0-.11,0-.16L290.14,263.2l-22.87,31.73c-5.17,7.45-7.64,12.16-7.64,18.66a25.93,25.93,0,0,0,4.89,15.22,26.25,26.25,0,0,0,36.59,6l.58-.42a26.38,26.38,0,0,1-15.63,4.41H286l-.3,0-.66,0c-.32,0-.64-.05-.95-.09-.62-.07-1.23-.16-1.84-.27h-.07c-.6-.12-1.2-.25-1.79-.41a25,25,0,0,1-4.46-1.63c-.57-.27-1.13-.56-1.68-.86,0,0,0,0,0,0a28,28,0,0,1-2.41-1.54,26.27,26.27,0,0,1-6-36.58Zm-18.44,70.6h0a24.44,24.44,0,0,0,2.41,1.53A28,28,0,0,1,271.79,333.92Z"/><path d="M258.11,230.61c-1.36.21-2.69.41-4,.59l-.51.07c-.73.11-1.46.2-2.18.29l-2.14.26q-4.25.5-8.13.78l-3.36.21-2.2.1-2.13.07L232,233h-1.24c-1,0-1.91,0-2.83,0H227c-1.46,0-2.87-.09-4.23-.17-.31,0-.61,0-.91-.06l-1.61-.11-2.19-.2-.25,0c-.79-.08-1.57-.17-2.32-.27l-1.55-.21-1.9-.29c-1.68-.29-3.26-.61-4.75-1l-1.46-.36c-.48-.12-.95-.25-1.4-.38l-.19-.05-1.16-.34-1.29-.41-1.22-.41h0l-.79-.28-.78-.3-.65-.26c-.34-.13-.67-.27-1-.41l-.84-.37-.58-.27a41.55,41.55,0,0,1-4.7-2.58l-.81-.54A30.09,30.09,0,0,1,188,221.9l-.48-.42c-.59-.51-1.11-1-1.55-1.47h0l-3.2-4.45a26.25,26.25,0,0,1,6-36.59A25.93,25.93,0,0,1,204,174.07,26.29,26.29,0,0,1,225.32,185Z"/><path d="M281.61,263.32,260.1,293.25l21.5-29.94Zm-85.69-36.47a41.55,41.55,0,0,1-4.7-2.58l-.81-.54A30.09,30.09,0,0,1,188,221.9l-.48-.42c-.59-.51-1.11-1-1.55-1.47h0l-3.2-4.45a26.25,26.25,0,0,1,6-36.59A25.93,25.93,0,0,1,204,174.07,26.29,26.29,0,0,1,225.32,185l32.79,45.65c-1.36.21-2.69.41-4,.59l-.51.07c-.73.11-1.46.2-2.18.29l-2.14.26q-4.25.5-8.13.78l-3.36.21c-.74,0-1.48.08-2.2.1l-2.13.07L232,233h-1.24c-1,0-1.91,0-2.83,0H227c-1.46,0-2.87-.09-4.23-.17-.31,0-.61,0-.91-.06l-1.61-.11-2.19-.2-.25,0c-.79-.08-1.57-.17-2.32-.27l-1.55-.21-1.9-.29c-1.68-.29-3.26-.61-4.75-1-.5-.11-1-.23-1.46-.36s-.95-.24-1.4-.38l-.19-.05-1.16-.34-1.29-.41c-.42-.13-.82-.27-1.22-.41h0l-.79-.28-.78-.3-.65-.26c-.34-.13-.67-.27-1-.41l-.84-.37Zm56.73,86-56.09-78.08.32.12.39.14c.76.29,1.55.56,2.37.83l.78.25,1.68.51A84.76,84.76,0,0,0,215,239.2l2,.23h.12c.77.08,1.55.15,2.35.21l1.2.09c1,.08,2.06.14,3.13.18l1.91.07c1.3,0,2.64.06,4,.06h2.33c1,0,2,0,3-.08l1.25,0,1.45-.07,1.48-.08.62,0c2.38-.15,4.85-.35,7.41-.62l1.83-.2q4.6-.51,9.61-1.29l1.23-.19.6-.1q.9-.13,1.8-.3l.36-.06,18.85,26.24-20,27.7C255.8,299.18,252.81,304.94,252.65,312.87Zm68-91.85a130.47,130.47,0,0,0-4,32.34,144.09,144.09,0,0,0,.9,16c3.18,28.47-1,44.88-6,54.19a32,32,0,0,1-6,8.08l-2.41,1.73a15.4,15.4,0,0,1-1.42,1l-.05,0-.58.42a26.18,26.18,0,0,1-41.48-21.22c0-6.5,2.47-11.21,7.64-18.66l22.87-31.73,30.51-42.34S320.62,221,320.61,221Zm68.48-5.48-64.81,90.23a115,115,0,0,0,1.32-18,172.38,172.38,0,0,0-1.14-19.19,125.41,125.41,0,0,1,5-53A79,79,0,0,1,339,195.39l.08-.12,1.23-1.71,6.18-8.6a26.29,26.29,0,0,1,21.35-10.89,26.22,26.22,0,0,1,21.23,41.47Z"/><circle cx="285.92" cy="163.77" r="24.2" transform="translate(-32.06 250.14) rotate(-45)"/><path d="M285.92,188a24.2,24.2,0,1,1,24.2-24.2A24.23,24.23,0,0,1,285.92,188Z"/><path d="M320.61,221a130.47,130.47,0,0,0-4,32.34,144.09,144.09,0,0,0,.9,16c3.18,28.47-1,44.88-6,54.19a32,32,0,0,1-6,8.08l-2.41,1.73-1.42,1-.05,0-.58.42a26.18,26.18,0,0,1-41.48-21.22c0-6.5,2.47-11.21,7.64-18.66l22.87-31.73,30.51-42.34S320.62,221,320.61,221Z"/><path d="M281.6,263.31l-21.5,29.94,21.51-29.93Z"/><path d="M341.63,385.7l.85,3L336.77,400H321.28l26.83-52.62L375,400h-15.5l-5.63-10.78.77-3.52-6.55-14.79Zm-6-3.74h25.28l.36,10.08H335.22Z"/><path d="M393.83,350.69V400H379.88V350.69Z"/><path d="M179.25,375.41l6.41,15.87,6.41-15.87h6.36l-12.77,26.83-12.72-26.83Z"/><path d="M206.69,398.93a11.15,11.15,0,0,1-4.41-4.49,15.4,15.4,0,0,1,0-13.53,11,11,0,0,1,4.46-4.46,14,14,0,0,1,6.79-1.58,13.59,13.59,0,0,1,6.63,1.5,10.17,10.17,0,0,1,4.19,4.3,14.46,14.46,0,0,1,1.47,6.77c0,.28,0,.58,0,.9a5,5,0,0,1-.08.7h-21.6v-4h16.68l-1.76,2.46a7.5,7.5,0,0,0,.34-.88,2.89,2.89,0,0,0,.19-.93,7.26,7.26,0,0,0-.77-3.43,5.63,5.63,0,0,0-2.14-2.24,6.11,6.11,0,0,0-3.18-.8,7,7,0,0,0-3.74,1,6,6,0,0,0-2.36,2.78,11.7,11.7,0,0,0-.85,4.49,11.43,11.43,0,0,0,.8,4.52,6,6,0,0,0,2.38,2.8,7.2,7.2,0,0,0,3.82,1,8.5,8.5,0,0,0,4.12-1,7.82,7.82,0,0,0,2.94-2.94l5,2a12.82,12.82,0,0,1-5,5,15.09,15.09,0,0,1-7.33,1.66A13.27,13.27,0,0,1,206.69,398.93Z"/><path d="M238.42,400H232.7V375.41h5.72Zm5.82-19.41a4.26,4.26,0,0,0-1.76-.32,3.54,3.54,0,0,0-2.35.75,4.11,4.11,0,0,0-1.31,2.06,10.44,10.44,0,0,0-.4,3.07L236.49,385a11.84,11.84,0,0,1,1.1-5.21,9.85,9.85,0,0,1,2.83-3.61,5.86,5.86,0,0,1,3.61-1.34,7.64,7.64,0,0,1,2.51.41,4.25,4.25,0,0,1,2,1.41l-2.78,4.87A8,8,0,0,0,244.24,380.59Z"/><path d="M268.51,380.91a4.23,4.23,0,0,0-3.48-1.39,5.89,5.89,0,0,0-2.83.67,4.76,4.76,0,0,0-1.92,1.93,5.86,5.86,0,0,0-.7,2.91v15h-5.77V375.41h5.77v3.79a8,8,0,0,1,3-3.26,8.68,8.68,0,0,1,4.41-1.07,8,8,0,0,1,6.36,2.54,10.35,10.35,0,0,1,2.19,7V400h-5.93V385A6.45,6.45,0,0,0,268.51,380.91Z"/><path d="M285.16,363.12a3.73,3.73,0,0,1,5.13,0,3.51,3.51,0,0,1,0,5,3.66,3.66,0,0,1-5.13,0,3.38,3.38,0,0,1,0-5Zm5.37,12.29V400h-5.67V375.41Z"/><path d="M303.33,394.14a8.86,8.86,0,0,0,2.43,1.39,6.91,6.91,0,0,0,2.46.46,3.8,3.8,0,0,0,2.43-.7,2.29,2.29,0,0,0,.88-1.92,2.71,2.71,0,0,0-.69-1.85,5.82,5.82,0,0,0-1.92-1.33c-.83-.38-1.79-.76-2.89-1.15a30.31,30.31,0,0,1-3.29-1.52,7.83,7.83,0,0,1-2.67-2.33,6.77,6.77,0,0,1,.11-7.38,6.71,6.71,0,0,1,3.1-2.21,12,12,0,0,1,4.19-.73,12.18,12.18,0,0,1,3.82.59,13.12,13.12,0,0,1,3.24,1.55A11.6,11.6,0,0,1,317,379.2l-3.21,3.43a9.94,9.94,0,0,0-2.94-2.36,7.51,7.51,0,0,0-3.53-.91,3.57,3.57,0,0,0-2,.54,1.76,1.76,0,0,0-.8,1.55,2,2,0,0,0,.72,1.52,6.88,6.88,0,0,0,1.93,1.21c.8.35,1.7.73,2.69,1.12a29.64,29.64,0,0,1,3.75,1.76,8.83,8.83,0,0,1,2.75,2.35,6,6,0,0,1,1,3.64,7.08,7.08,0,0,1-2.38,5.58,9.32,9.32,0,0,1-6.44,2.11,13.25,13.25,0,0,1-4.62-.77,13.1,13.1,0,0,1-3.69-2,15.8,15.8,0,0,1-2.65-2.65l3.37-3.36A19.32,19.32,0,0,0,303.33,394.14Z"/></svg>